<svg width="24" height="30" viewBox="0 0 24 30" fill="none" xmlns="http://www.w3.org/2000/svg">
<path d="M12 0C5.83131 0 0.81282 5.02051 0.81282 11.1916C0.81282 20.3862 10.8865 29.3639 11.3154 29.7416C11.511 29.9139 11.7554 30.0001 12 30.0001C12.2445 30.0001 12.489 29.914 12.6846 29.7416C13.1134 29.364 23.1872 20.3863 23.1872 11.1916C23.1872 5.02051 18.1687 0 12 0Z" fill="black"/>
<path d="M12.0782 5.95959C9.22231 5.95959 6.89898 8.29838 6.89898 11.1731C6.89898 14.048 9.22231 16.3867 12.0782 16.3867C14.934 16.3867 17.2574 14.048 17.2574 11.1731C17.2574 8.29838 14.934 5.95959 12.0782 5.95959Z" fill="white"/>
</svg>
