<svg width="30" height="30" viewBox="0 0 30 30" fill="none" xmlns="http://www.w3.org/2000/svg">
<g clip-path="url(#clip0_52_37)">
<path d="M15 0C8.83131 0 3.81282 5.02051 3.81282 11.1916C3.81282 20.3862 13.8865 29.3639 14.3154 29.7416C14.511 29.9139 14.7554 30.0001 15 30.0001C15.2445 30.0001 15.489 29.914 15.6846 29.7416C16.1134 29.364 26.1872 20.3863 26.1872 11.1916C26.1872 5.02051 21.1687 0 15 0Z" fill="white"/>
<path d="M15.0782 5.95959C12.2223 5.95959 9.89898 8.29838 9.89898 11.1731C9.89898 14.048 12.2223 16.3867 15.0782 16.3867C17.934 16.3867 20.2574 14.048 20.2574 11.1731C20.2574 8.29838 17.934 5.95959 15.0782 5.95959Z" fill="#0B3859"/>
</g>
<defs>
<clipPath id="clip0_52_37">
<rect width="30" height="30" fill="white"/>
</clipPath>
</defs>
</svg>
