<svg width="30" height="30" viewBox="0 0 30 30" fill="none" xmlns="http://www.w3.org/2000/svg">
<path d="M9.5829 2.93019C9.23485 2.38711 8.65804 2.03323 8.02994 2.00623C4.46542 1.85221 3.02142 4.61377 3.02142 5.41689C3.02142 5.97297 2.2616 12.6582 9.8017 20.1983C17.3418 27.7384 24.0271 26.9786 24.5831 26.9786C25.3863 26.9786 28.1478 25.5346 27.9938 21.9701C27.9668 21.342 27.6129 20.7652 27.0698 20.4171C26.4518 20.021 25.4925 19.4064 24.2413 18.6063C23.1001 17.8772 21.6262 17.8253 20.4361 18.4774L18.3518 19.9424C17.7877 20.3385 17.0657 20.4175 16.4296 20.1514C15.4395 19.7374 13.9178 18.9347 12.4915 17.5085C11.0653 16.0823 10.2626 14.5606 9.84858 13.5704C9.58255 12.9343 9.66154 12.2123 10.0576 11.6483L11.5227 9.56397C12.1748 8.37379 12.1238 6.8999 11.3937 5.75873C10.5936 4.50755 9.97896 3.54828 9.5829 2.93019Z" fill="white"/>
</svg>
