<svg width="25" height="25" viewBox="0 0 25 25" fill="none" xmlns="http://www.w3.org/2000/svg">
<path d="M6.5829 0.93019C6.23485 0.387111 5.65804 0.0332323 5.02994 0.0062284C1.46542 -0.147794 0.0214152 2.61377 0.0214152 3.41689C0.0214152 3.97297 -0.738397 10.6582 6.8017 18.1983C14.3418 25.7384 21.0271 24.9786 21.5831 24.9786C22.3863 24.9786 25.1478 23.5346 24.9938 19.9701C24.9668 19.342 24.6129 18.7652 24.0698 18.4171C23.4518 18.021 22.4925 17.4064 21.2413 16.6063C20.1001 15.8772 18.6262 15.8253 17.4361 16.4774L15.3518 17.9424C14.7877 18.3385 14.0657 18.4175 13.4296 18.1514C12.4395 17.7374 10.9178 16.9347 9.49155 15.5085C8.06534 14.0823 7.26264 12.5606 6.84858 11.5704C6.58255 10.9343 6.66154 10.2123 7.0576 9.64826L8.52266 7.56397C9.17475 6.37379 9.12384 4.8999 8.39373 3.75873C7.59361 2.50755 6.97896 1.54828 6.5829 0.93019Z" fill="black"/>
</svg>
